<?xml version="1.0" encoding="UTF-8"?>
<svg width="106px" height="20px" viewBox="0 0 106 20" version="1.1" xmlns="http://www.w3.org/2000/svg" xmlns:xlink="http://www.w3.org/1999/xlink">
    <!-- Generator: Sketch 52.5 (67469) - http://www.bohemiancoding.com/sketch -->
    <title>ACLOGO</title>
    <desc>Created with Sketch.</desc>
    <g id="Page-1" stroke="none" stroke-width="1" fill="none" fill-rule="evenodd">
        <path d="M20.063,19 L13.979,19 L13.225,16.478 L6.959,16.478 L6.205,19 L0.329,19 L6.855,1.112 L13.537,1.112 L20.063,19 Z M10.053,6.104 L8.155,12.474 L12.029,12.474 L10.157,6.104 L10.053,6.104 Z M27.281,0.8 C32.481,0.8 35.887,3.478 35.887,8.47 L30.401,8.47 C30.401,6.416 29.309,5.09 27.255,5.09 C24.811,5.09 23.875,6.78 23.875,9.224 L23.875,10.888 C23.875,13.332 24.863,15.022 27.203,15.022 C29.465,15.022 30.583,13.8 30.583,11.746 L35.887,11.746 C35.887,16.66 32.741,19.312 27.281,19.312 C21.171,19.312 17.999,16.166 17.999,10.056 C17.999,3.946 21.171,0.8 27.281,0.8 Z M68.0877409,13.1335603 C67.0441534,17.2196141 63.7559065,19.312 58.773,19.312 C55.2131693,19.312 52.5270838,18.2440892 50.905,16.144262 L50.905,19 L35.981,19 L35.981,1.112 L41.727,1.112 L41.727,14.424 L49.9106883,14.424 C49.3949173,13.1951083 49.127,11.737843 49.127,10.056 C49.127,3.946 52.663,0.8 58.773,0.8 C63.8004961,0.8 67.1028675,2.93000086 68.1152169,7.08861075 C69.1295808,2.93000086 72.4433231,0.8 77.535,0.8 C82.553,0.8 86.635,3.088 86.635,7.586 L81.149,7.586 C81.149,6.052 79.589,5.09 77.769,5.09 C75.039,5.09 73.661,6.624 73.661,9.224 L73.661,10.888 C73.661,13.488 75.039,15.022 77.769,15.022 C79.589,15.022 81.149,14.086 81.149,12.656 L77.093,12.656 L77.093,9.016 L86.4789799,9.016 C86.8647371,3.58931419 90.3357855,0.8 96.089,0.8 C102.199,0.8 105.761,3.946 105.761,10.056 C105.761,16.166 102.199,19.312 96.089,19.312 C90.8060986,19.312 87.4474899,16.9600867 86.635,12.3739028 L86.635,19 L83.671,19 L83.099,17.232 C81.487,18.61 79.433,19.312 76.703,19.312 C71.8473166,19.312 68.9802644,17.2196141 68.0877409,13.1335603 Z M58.773,5.09 C56.251,5.09 55.003,6.78 55.003,9.224 L55.003,10.888 C55.003,13.332 56.251,15.022 58.773,15.022 C61.295,15.022 62.569,13.332 62.569,10.888 L62.569,9.224 C62.569,6.78 61.295,5.09 58.773,5.09 Z M96.089,5.09 C93.567,5.09 92.319,6.78 92.319,9.224 L92.319,10.888 C92.319,13.332 93.567,15.022 96.089,15.022 C98.611,15.022 99.885,13.332 99.885,10.888 L99.885,9.224 C99.885,6.78 98.611,5.09 96.089,5.09 Z" id="ACLOGO" fill="#ED3D25"></path>
    </g>
</svg>